<?xml version="1.0" encoding="utf-8"?>
<!-- Generator: Adobe Illustrator 26.0.3, SVG Export Plug-In . SVG Version: 6.00 Build 0)  -->
<svg version="1.1" id="Layer_1" xmlns="http://www.w3.org/2000/svg" xmlns:xlink="http://www.w3.org/1999/xlink" x="0px" y="0px"
	 viewBox="0 0 600 600" style="enable-background:new 0 0 600 600;" xml:space="preserve">
<style type="text/css">
	.st0{fill:#FFFFFF;}
	.st1{fill:#1F1F1F;stroke:#1F1F1F;stroke-miterlimit:10;}
	.st2{fill:#FFFFFF;stroke:#FFFFFF;stroke-miterlimit:10;}
	.st3{fill:none;}
	.st4{fill:#1F1F1F;}
	.st5{fill:#1F1F1F;stroke:#1F1F1F;stroke-width:0.2;stroke-miterlimit:10;}
	.st6{fill:none;stroke:#1F1F1F;stroke-width:0;stroke-linecap:round;stroke-linejoin:round;}
</style>
<path class="st0" d="M568.7,600H32.9c-17.7,0-32.1-14.4-32.1-32.1V32.1C0.8,14.4,15.1,0,32.9,0h535.8c17.7,0,32.1,14.4,32.1,32.1
	v535.8C600.8,585.6,586.4,600,568.7,600z"/>
<g>
	<path class="st1" d="M451.7,122.3l-119.6-69c-17.2-9.9-38.5-9.9-55.6,0l-119.6,69c-17.2,9.9-27.8,28.4-27.8,48.2v138
		c0,19.8,10.7,38.3,27.8,48.2l119.6,69c8.6,5,18.2,7.4,27.8,7.4c9.6,0,19.2-2.5,27.8-7.4l119.6-69c17.2-9.9,27.8-28.4,27.8-48.2
		v-138C479.5,150.7,468.8,132.2,451.7,122.3z M304.3,400.7c-88.3,0-160.1-72.1-160.1-160.8S216.1,79.2,304.3,79.2
		S464.4,151.3,464.4,240S392.6,400.7,304.3,400.7z"/>
	<ellipse class="st1" cx="304.3" cy="239.9" rx="160.1" ry="160.8"/>
</g>
<circle class="st2" cx="304.3" cy="239.9" r="159.8"/>
<path class="st1" d="M410.2,166.5l-5.7-9.8c-2.3-3.9-6.4-6.3-11-6.3l0,0h-0.1h-11.6H226.7h-11.6l0,0c-4.5,0-8.7,2.4-11,6.3l-5.7,9.9
	c-2.3,3.9-2.3,8.8,0,12.8l5.7,9.9c2.3,3.9,6.5,6.3,11,6.3l0,0h11.6h44.6c-8,8.2-12.9,19.4-12.9,31.8c0,17.1,9.4,31.9,23.2,39.8V339
	c0,0.1,0,0.2,0,0.3v10.8c0,4.6,2.5,8.8,6.4,11.1l9.9,5.6c3.9,2.2,8.6,2.2,12.5,0l9.9-5.6c4-2.3,6.4-6.5,6.4-11.1v-10v-1v-72
	c13.8-7.9,23.2-22.7,23.2-39.8c0-12.4-4.9-23.6-12.9-31.8h44.8h11.6h0.1l0,0c4.5,0,8.7-2.4,11-6.3l5.7-9.8
	C412.5,175.4,412.5,170.5,410.2,166.5z"/>
<path class="st2" d="M325.9,198.6c0-2.7-1.4-5.1-3.7-6.5l-14.1-8.2c-2.3-1.3-5.2-1.3-7.5,0l-14.1,8.1c-2.3,1.3-3.7,3.8-3.8,6.5v16.3
	c0,0.2,0,0.3,0,0.5s0,0.4,0,0.6v16.3c0,2.7,1.4,5.1,3.7,6.5l14.1,8.2c2.3,1.3,5.2,1.3,7.5,0l14.1-8.1c2.3-1.3,3.7-3.8,3.8-6.5V216
	c0-0.2,0-0.3,0-0.5s0-0.4,0-0.6V198.6z"/>
<g>
	<path class="st3" d="M327.4,547.5c-1.9,0-3.4,1.2-3.7,2.9h7.2C330.7,548.6,329.4,547.5,327.4,547.5z"/>
	<path class="st3" d="M314.6,550.1c-0.7-1.6-1.9-2.6-3.4-2.6c-2,0-3.6,1.6-3.6,3.7c0,2.2,1.4,3.7,3.5,3.7c1.3,0,2.4-0.5,3.5-1.7
		V550.1z"/>
	<path class="st3" d="M336,492.1c-4.9,0-9.9,3-9.9,9.6c0,6.6,5,9.6,9.9,9.6s9.9-3,9.9-9.6C345.9,495,340.9,492.1,336,492.1z"/>
	<path class="st3" d="M370.4,492.1c-4.9,0-9.9,3-9.9,9.6c0,6.6,5,9.6,9.9,9.6s9.9-3,9.9-9.6C380.3,495,375.3,492.1,370.4,492.1z"/>
	<path class="st3" d="M213.4,543.8H209v10.9h4.4c3.7,0,5.8-2,5.8-5.5C219.2,546,216.8,543.8,213.4,543.8z"/>
	<path class="st3" d="M294.5,554.9c1.9,0,3.5-1,4.3-1.7V552h-4.3c-1.5,0-2.4,0.5-2.4,1.4C292.2,554.3,293.1,554.9,294.5,554.9z"/>
	<path class="st3" d="M231.8,547.5c-1.9,0-3.4,1.2-3.7,2.9h7.2C235.1,548.6,233.8,547.5,231.8,547.5z"/>
	<path class="st3" d="M169.1,492.1c-4.9,0-9.9,3-9.9,9.6c0,6.6,5,9.6,9.9,9.6s9.9-3,9.9-9.6C179.1,495,174.1,492.1,169.1,492.1z"/>
	<path class="st3" d="M367.9,554.9c1.9,0,3.5-1,4.3-1.7V552H368c-1.5,0-2.4,0.5-2.4,1.4C365.6,554.3,366.6,554.9,367.9,554.9z"/>
	<path class="st4" d="M138.3,516.2h0.7c1.3,0,2.4-1.1,2.4-2.4v-21.3h9c1.3,0,2.4-1.1,2.4-2.4v-0.6c0-1.3-1.1-2.4-2.4-2.4h-23.4
		c-1.3,0-2.4,1.1-2.4,2.4v0.6c0,1.3,1.1,2.4,2.4,2.4h9v21.3C135.9,515.1,137,516.2,138.3,516.2z"/>
	<path class="st4" d="M153.8,501.7c0,8.6,6.4,14.9,15.3,14.9s15.3-6.3,15.3-14.9s-6.4-14.9-15.3-14.9S153.8,493,153.8,501.7z
		 M169.1,511.3c-4.9,0-9.9-3-9.9-9.6c0-6.6,5-9.6,9.9-9.6s9.9,3,9.9,9.6C179.1,508.3,174.1,511.3,169.1,511.3z"/>
	<path class="st4" d="M192.8,487.2h-0.7c-1.3,0-2.4,1.1-2.4,2.4v24.3c0,1.3,1.1,2.4,2.4,2.4h0.7c1.3,0,2.4-1.1,2.4-2.4v-6.4l3.9-3.4
		l11.1,11.3c0.2,0.2,0.8,0.8,1.9,0.8h0.9c1.3,0,2.3-1,2.3-2.3c0-1-0.6-1.5-0.8-1.7l-11.5-11.7l10.6-9.2l0.1-0.1
		c0.2-0.2,0.8-0.8,0.8-1.8c0-1.3-1-2.3-2.3-2.3h-0.8c-0.9,0-1.6,0.4-2,0.8l-14.2,12.3v-10.8C195.2,488.2,194.1,487.2,192.8,487.2z"
		/>
	<path class="st4" d="M239.8,492.5c1.3,0,2.4-1.1,2.4-2.4v-0.6c0-1.3-1.1-2.4-2.4-2.4h-18c-1.3,0-2.4,1.1-2.4,2.4v24.3
		c0,1.3,1.1,2.4,2.4,2.4h18.5c1.3,0,2.4-1.1,2.4-2.4v-0.6c0-1.3-1.1-2.4-2.4-2.4h-15.4v-7h13.8c1.3,0,2.4-1.1,2.4-2.4v-0.6
		c0-1.3-1.1-2.4-2.4-2.4h-13.8v-6.1H239.8z"/>
	<path class="st4" d="M272.4,486.8c-1.3,0-2.4,1.1-2.4,2.4v17.6l-15.1-16l-2.3-3.2c-1.3-1.9-4-1.4-4.9,0.3c-0.3,0.4-0.4,0.8-0.4,1.3
		v24.7c0,1.3,1.1,2.4,2.4,2.4h0.7c1.3,0,2.4-1.1,2.4-2.4v-17.6l18.9,20h1.5c1.3,0,2.4-1.1,2.4-2.4v-24.7c0-1.3-1.1-2.4-2.4-2.4
		H272.4z"/>
	<path class="st4" d="M305.1,516.2h0.7c1.3,0,2.4-1.1,2.4-2.4v-21.3h9c1.3,0,2.4-1.1,2.4-2.4v-0.6c0-1.3-1.1-2.4-2.4-2.4h-23.4
		c-1.3,0-2.4,1.1-2.4,2.4v0.6c0,1.3,1.1,2.4,2.4,2.4h9v21.3C302.7,515.1,303.8,516.2,305.1,516.2z"/>
	<path class="st4" d="M320.6,501.7c0,8.6,6.4,14.9,15.3,14.9s15.3-6.3,15.3-14.9s-6.4-14.9-15.3-14.9S320.6,493,320.6,501.7z
		 M336,511.3c-4.9,0-9.9-3-9.9-9.6c0-6.6,5-9.6,9.9-9.6s9.9,3,9.9,9.6C345.9,508.3,340.9,511.3,336,511.3z"/>
	<path class="st4" d="M355.1,501.7c0,8.6,6.4,14.9,15.3,14.9s15.3-6.3,15.3-14.9s-6.4-14.9-15.3-14.9S355.1,493,355.1,501.7z
		 M370.4,511.3c-4.9,0-9.9-3-9.9-9.6c0-6.6,5-9.6,9.9-9.6s9.9,3,9.9,9.6C380.3,508.3,375.3,511.3,370.4,511.3z"/>
	<path class="st4" d="M394.1,487.2h-0.7c-1.3,0-2.4,1.1-2.4,2.4v24.3c0,1.3,1.1,2.4,2.4,2.4h16.2c1.3,0,2.4-1.1,2.4-2.4v-0.6
		c0-1.3-1.1-2.4-2.4-2.4h-13.2v-21.3C396.5,488.2,395.4,487.2,394.1,487.2z"/>
	<path class="st4" d="M419,487.2h-0.7c-1.3,0-2.4,1.1-2.4,2.4v24.3c0,1.3,1.1,2.4,2.4,2.4h0.7c1.3,0,2.4-1.1,2.4-2.4v-6.4l3.9-3.4
		l11.1,11.3c0.2,0.2,0.8,0.8,1.9,0.8h0.9c1.3,0,2.3-1,2.3-2.3c0-1-0.6-1.5-0.8-1.7l-11.5-11.7l10.6-9.2l0.1-0.1
		c0.2-0.2,0.8-0.8,0.8-1.8c0-1.3-1-2.3-2.3-2.3h-0.8c-0.9,0-1.6,0.4-2,0.8l-14.2,12.3v-10.8C421.4,488.2,420.3,487.2,419,487.2z"/>
	<path class="st4" d="M447.9,487.2c-1.3,0-2.4,1.1-2.4,2.4v24.3c0,1.3,1.1,2.4,2.4,2.4h0.7c1.3,0,2.4-1.1,2.4-2.4v-24.3
		c0-1.3-1.1-2.4-2.4-2.4H447.9z"/>
	<path class="st4" d="M468.6,516.2h0.7c1.3,0,2.4-1.1,2.4-2.4v-21.3h9c1.3,0,2.4-1.1,2.4-2.4v-0.6c0-1.3-1.1-2.4-2.4-2.4h-23.4
		c-1.3,0-2.4,1.1-2.4,2.4v0.6c0,1.3,1.1,2.4,2.4,2.4h9v21.3C466.3,515.1,467.3,516.2,468.6,516.2z"/>
	<path class="st4" d="M213.4,542.5h-5.2c-0.2,0-0.5,0.2-0.5,0.5v12.4c0,0.2,0.2,0.5,0.5,0.5h5.2c4.4,0,7.1-2.6,7.1-6.7
		C220.5,545.4,217.5,542.5,213.4,542.5z M213.4,554.7H209v-10.9h4.4c3.5,0,5.9,2.2,5.9,5.5C219.2,552.7,217.1,554.7,213.4,554.7z"/>
	<path class="st4" d="M231.8,546.3c-2.9,0-5.1,2.1-5.1,4.9c0,2.8,2.2,4.9,5.2,4.9c2.3,0,3.7-1.2,4.3-1.9c0.1-0.1,0.2-0.2,0.2-0.4
		c0-0.2-0.1-0.4-0.2-0.4l-0.2-0.2c-0.2-0.1-0.5-0.1-0.7,0.1c-0.4,0.5-1.5,1.5-3.4,1.5c-1.2,0-2.3-0.4-3-1.2c-0.6-0.6-0.9-1.3-1-2.1
		h8.5l0-0.3c0,0,0-0.2,0-0.5C236.5,548.2,234.6,546.3,231.8,546.3z M228,550.4c0.3-1.8,1.8-2.9,3.7-2.9c2,0,3.3,1.1,3.5,2.9H228z"/>
	<path class="st4" d="M246.6,541.1c-2.1,0-3.4,1.4-3.4,3.7v1.7h-1.2c-0.2,0-0.5,0.2-0.5,0.5v0.3c0,0.2,0.2,0.5,0.5,0.5h1.2v7.7
		c0,0.2,0.2,0.5,0.5,0.5h0.3c0.2,0,0.5-0.2,0.5-0.5v-7.7h3.2c0.2,0,0.5-0.2,0.5-0.5V547c0-0.2-0.2-0.5-0.5-0.5h-3.2v-1.7
		c0-1.7,0.7-2.5,2.1-2.5c0.5,0,0.9,0.1,1.4,0.4c0.3,0.2,0.6,0.1,0.7-0.1l0.1-0.2c0-0.1,0.1-0.2,0.1-0.3c0-0.2-0.1-0.3-0.2-0.4
		C248.5,541.6,247.7,541.1,246.6,541.1z"/>
	<polygon class="st5" points="254.1,546.7 253.5,546.8 253.5,555.5 253.5,555.9 254.1,555.9 254.5,555.8 254.5,547.2 254.5,546.7 	
		"/>
	<path class="st4" d="M283.4,542.5h-0.2c-0.3,0-0.5,0.2-0.6,0.4l-6.2,8.8l-6.2-8.8c-0.1-0.1-0.3-0.4-0.6-0.4h-0.2
		c-0.2,0-0.5,0.2-0.5,0.5v12.4c0,0.2,0.2,0.5,0.5,0.5h0.3c0.2,0,0.5-0.2,0.5-0.5v-10.3c0.1,0.1,0.1,0.2,0.2,0.3l5.9,8.4l5.9-8.4
		c0.1-0.1,0.1-0.2,0.2-0.3v10.3c0,0.2,0.2,0.5,0.5,0.5h0.3c0.2,0,0.5-0.2,0.5-0.5V543C283.9,542.8,283.6,542.5,283.4,542.5z"/>
	<path class="st4" d="M295.4,546.3c-2.7,0-4.2,1.2-4.2,3.3v0.1c0,0.3,0.2,0.5,0.5,0.5h0.3c0.2,0,0.5-0.2,0.5-0.5v-0.1
		c0-1.4,1-2.1,2.9-2.1c2.3,0,3.4,1,3.4,2.9v0.3h-4.3c-2.3,0-3.6,1-3.6,2.6c0,1.3,1.1,2.7,3.6,2.7c1.5,0,3-0.5,4.3-1.4l0,0.6
		c0,0.4,0.3,0.6,0.5,0.6h0.2c0.3,0,0.5-0.2,0.5-0.5v-5C300,547.8,298.4,546.3,295.4,546.3z M294.5,552h4.3v1.2
		c-0.8,0.7-2.4,1.7-4.3,1.7c-1.4,0-2.3-0.6-2.3-1.5C292.2,552.5,293,552,294.5,552z"/>
	<path class="st4" d="M315.4,541.3h-0.3c-0.2,0-0.5,0.2-0.5,0.5v6.1c-0.7-0.7-1.8-1.5-3.4-1.5c-2.7,0-4.8,2.1-4.8,4.9
		c0,3.2,2.4,4.9,4.7,4.9c1.3,0,2.5-0.4,3.5-1.3l0,0.5c0,0.4,0.3,0.6,0.5,0.6h0.2c0.3,0,0.5-0.2,0.5-0.5v-13.7
		C315.9,541.5,315.7,541.3,315.4,541.3z M311.1,554.9c-2.1,0-3.5-1.5-3.5-3.7c0-2.1,1.5-3.7,3.6-3.7c1.5,0,2.8,0.9,3.4,2.6v3.1
		C313.5,554.4,312.5,554.9,311.1,554.9z"/>
	<path class="st4" d="M327.4,546.3c-2.9,0-5.1,2.1-5.1,4.9c0,2.8,2.2,4.9,5.2,4.9c2.3,0,3.7-1.2,4.3-1.9c0.1-0.1,0.2-0.2,0.2-0.4
		c0-0.2-0.1-0.4-0.2-0.4l-0.2-0.2c-0.2-0.1-0.5-0.1-0.7,0.1c-0.4,0.5-1.5,1.5-3.4,1.5c-1.2,0-2.3-0.4-3-1.2c-0.6-0.6-0.9-1.3-1-2.1
		h8.5l0-0.3c0,0,0-0.2,0-0.5C332.1,548.2,330.2,546.3,327.4,546.3z M323.7,550.4c0.3-1.8,1.8-2.9,3.7-2.9c2,0,3.3,1.1,3.5,2.9H323.7
		z"/>
	<path class="st4" d="M358,554.7h-8.7v-5.1h7.8c0.2,0,0.5-0.2,0.5-0.5v-0.3c0-0.2-0.2-0.5-0.5-0.5h-7.8v-4.6h8.4
		c0.2,0,0.5-0.2,0.5-0.5V543c0-0.2-0.2-0.5-0.5-0.5h-9.2c-0.2,0-0.5,0.2-0.5,0.5v12.4c0,0.2,0.2,0.5,0.5,0.5h9.4
		c0.2,0,0.5-0.2,0.5-0.5v-0.3C358.4,554.9,358.2,554.7,358,554.7z"/>
	<path class="st4" d="M368.9,546.3c-2.7,0-4.2,1.2-4.2,3.3v0.1c0,0.3,0.2,0.5,0.5,0.5h0.3c0.2,0,0.5-0.2,0.5-0.5v-0.1
		c0-1.4,1-2.1,2.9-2.1c2.3,0,3.4,1,3.4,2.9v0.3H368c-2.3,0-3.6,1-3.6,2.6c0,1.3,1.1,2.7,3.6,2.7c1.5,0,3-0.5,4.3-1.4l0,0.6
		c0,0.4,0.3,0.6,0.5,0.6h0.2c0.3,0,0.5-0.2,0.5-0.5v-5C373.5,547.8,371.9,546.3,368.9,546.3z M368,552h4.3v1.2
		c-0.8,0.7-2.4,1.7-4.3,1.7c-1.4,0-2.3-0.6-2.3-1.5C365.6,552.5,366.5,552,368,552z"/>
	<path class="st4" d="M385.2,550.6l-2.4-0.2c-1.7-0.2-1.7-0.8-1.7-1.1c0-0.8,1-1.7,2.8-1.7c2.9,0,2.9,1.4,2.9,1.8
		c0,0.2,0.2,0.5,0.5,0.5h0.3c0.3,0,0.5-0.2,0.5-0.5c0-0.9-0.4-3-4.1-3c-2.6,0-4,1.5-4,2.9c0,0.9,0.5,2.1,2.8,2.3l2.4,0.2
		c1.9,0.2,2.1,0.8,2.1,1.4c0,0.8-0.9,1.7-2.8,1.7c-3.2,0-3.2-1.5-3.2-2c0-0.2-0.2-0.5-0.5-0.5h-0.3c-0.2,0-0.5,0.2-0.5,0.5
		c0,1.2,0.6,3.3,4.5,3.3c2.8,0,4.1-1.5,4.1-2.9C388.4,551.7,387.4,550.8,385.2,550.6z"/>
	<path class="st4" d="M402.4,546.5h-0.3c-0.2,0-0.4,0.1-0.5,0.4l-3,7.2c-0.1-0.2-0.2-0.3-0.3-0.6l-3.5-6.6c-0.1-0.2-0.2-0.4-0.6-0.4
		H394c-0.3,0-0.5,0.2-0.5,0.5c0,0.1,0.1,0.2,0.1,0.4l4.3,8.2l-2,4.8c-0.1,0.2-0.1,0.3-0.1,0.4c0,0.3,0.2,0.5,0.5,0.5h0.3
		c0.2,0,0.4-0.1,0.5-0.4l5.6-13.4c0.1-0.2,0.1-0.3,0.1-0.4C402.9,546.7,402.7,546.5,402.4,546.5z"/>
	<line class="st6" x1="485.8" y1="527.3" x2="485.8" y2="527.3"/>
	<polygon class="st4" points="485.8,526.3 123.5,526.3 123.5,528.3 485.8,528.3 485.8,527.3 	"/>
	<line class="st6" x1="122.7" y1="475.5" x2="122.7" y2="475.5"/>
	<polygon class="st4" points="485,476.5 485,474.5 122.7,474.5 122.7,475.5 122.7,476.5 	"/>
</g>
</svg>
